<svg width="390" height="390" viewBox="0 0 390 390" fill="none" xmlns="http://www.w3.org/2000/svg">
<path fill-rule="evenodd" clip-rule="evenodd" d="M182.426 69.2191L55.6039 175.601C26.7451 197.373 0 232.583 0 274.899C0 338.467 50.3989 390 112.569 390C142.098 390 168.971 378.375 189.05 359.356L193.241 355.175C193.241 355.175 204.149 342.383 208.514 335.13L340.901 161.379C317.908 162.961 311.122 158.215 309.765 151.491C308.088 143.185 364.452 42.3225 390 0C374.432 9.88844 198.393 110.751 182.426 112.728C166.459 114.706 175.64 80.6897 182.426 69.2191ZM112.998 356.775C158.07 356.775 194.608 319.941 194.608 274.503C194.608 229.066 158.07 192.231 112.998 192.231C67.9262 192.231 31.3883 229.066 31.3883 274.503C31.3883 319.941 67.9262 356.775 112.998 356.775Z" fill="#F71735"/>
</svg>
